# xmcd CD database file
# Copyright (C) 1995-1998 Ti Kan
#
# Track frame offsets:
#	150
#	13925
#	27687
#	41727
#	53932
#	68750
#	80612
#	91997
#	104812
#	116745
#	128925
#	142430
#	155165
#	168090
#	180142
#	191659
#	203737
#	215647
#	229925
#	240902
#
# Disc length: 3382 seconds
#
# Revision: 4
# Processed by: cddbd v1.4PL0 Copyright (c) Steve Scherf et al.
# Submitted via: CDex 1.30Release
#
DISCID=2a0d3414
DTITLE=Conway Twitty and Loretta Lynn - Sing Their Biggest Hits [CDTwo)
DYEAR=1997
DGENRE=Country
TTITLE0=When The Tingle Becomes A Chill
TTITLE1=Somebody Somewhere (Don't Know What He's Missing Tonight)
TTITLE2=She's Got You
TTITLE3=Out Of My Head And Back In My Bed
TTITLE4=I Can't Feel You Anymore
TTITLE5=The Pill
TTITLE6=Louisiana Women, Mississippi Man
TTITLE7=I've Already Loved You In My Mind
TTITLE8=After The Fire Is Gone
TTITLE9=As Soon As I Hang Up The Phone
TTITLE10=Feelins'
TTITLE11=The Letter
TTITLE12=I Can't Love You Enough
TTITLE13=From Seven Till Ten
TTITLE14=You're The Reason Our Kids Are Ugly
TTITLE15=You Know Just What I'd Do
TTITLE16=Lovin' What Your Lovin' Does To Me
TTITLE17=I Still Believe In Waltzes
TTITLE18=Lead Me On
TTITLE19=It's True Love
EXTD=YEAR: 1997 ID3G:   2
EXTT0=
EXTT1=
EXTT2=
EXTT3=
EXTT4=
EXTT5=
EXTT6=
EXTT7=
EXTT8=
EXTT9=
EXTT10=
EXTT11=
EXTT12=
EXTT13=
EXTT14=
EXTT15=
EXTT16=
EXTT17=
EXTT18=
EXTT19=
PLAYORDER=
